<?xml version="1.0" encoding="utf-8"?>
<!-- Generator: Adobe Illustrator 16.0.0, SVG Export Plug-In . SVG Version: 6.00 Build 0)  -->
<!DOCTYPE svg PUBLIC "-//W3C//DTD SVG 1.1//EN" "http://www.w3.org/Graphics/SVG/1.1/DTD/svg11.dtd">
<svg version="1.1" id="Слой_1" xmlns="http://www.w3.org/2000/svg" xmlns:xlink="http://www.w3.org/1999/xlink" x="0px" y="0px"
	 width="125.778px" height="121.704px" viewBox="0 0 125.778 121.704" enable-background="new 0 0 125.778 121.704"
	 xml:space="preserve">
<g>
	<path fill="#95D600" d="M82.457,75.523l-3.937-0.75c-0.136-0.357-0.286-0.718-0.45-1.075l2.255-3.317
		c0.354-0.519,0.287-1.215-0.156-1.658l-5.537-5.537c-0.443-0.443-1.139-0.508-1.657-0.156l-3.317,2.256
		c-0.344-0.156-0.685-0.289-1.023-0.418c-1.436,1.711-3.59,2.801-5.999,2.801s-4.563-1.09-6-2.803
		c-0.342,0.131-0.684,0.262-1.023,0.418l-3.318-2.255c-0.517-0.351-1.214-0.287-1.657,0.157l-5.537,5.536
		c-0.443,0.443-0.509,1.138-0.156,1.657l2.255,3.318c-0.165,0.357-0.314,0.718-0.45,1.075l-3.937,0.749
		c-0.615,0.117-1.06,0.656-1.06,1.283v7.831c0,0.626,0.445,1.165,1.06,1.282l3.937,0.749c0.136,0.357,0.286,0.718,0.45,1.075
		l-2.255,3.318c-0.353,0.518-0.287,1.215,0.156,1.657l5.537,5.536c0.443,0.444,1.139,0.51,1.657,0.157l3.318-2.255
		c0.358,0.164,0.718,0.314,1.076,0.449l0.749,3.938c0.118,0.615,0.657,1.061,1.283,1.061h7.831c0.627,0,1.166-0.445,1.282-1.061
		l0.749-3.936c0.357-0.136,0.719-0.286,1.076-0.451l3.317,2.256c0.517,0.354,1.216,0.289,1.657-0.156l5.537-5.537
		c0.443-0.442,0.51-1.138,0.156-1.657l-2.255-3.317c0.164-0.358,0.314-0.719,0.45-1.076l3.937-0.749
		c0.616-0.118,1.062-0.657,1.062-1.283v-7.831C83.518,76.177,83.073,75.638,82.457,75.523z M62.634,88.551
		c-4.325,0-7.831-3.507-7.831-7.831c0-4.326,3.506-7.832,7.831-7.832s7.831,3.506,7.831,7.832
		C70.465,85.044,66.959,88.551,62.634,88.551z"/>
	<circle fill="#95D600" cx="62.634" cy="37.648" r="11.747"/>
</g>
<path fill="#153744" d="M62.634,71.583c-5.038,0-9.136,4.1-9.136,9.137c0,5.036,4.098,9.136,9.136,9.136s9.136-4.1,9.136-9.136
	C71.77,75.683,67.672,71.583,62.634,71.583z M62.634,87.246c-3.599,0-6.526-2.928-6.526-6.525c0-3.599,2.927-6.526,6.526-6.526
	s6.526,2.928,6.526,6.526C69.161,84.318,66.233,87.246,62.634,87.246z"/>
<rect x="27.394" y="62.447" fill="#153744" width="7.832" height="2.61"/>
<rect x="27.394" y="67.667" fill="#153744" width="7.832" height="2.611"/>
<rect x="90.043" y="62.447" fill="#153744" width="7.832" height="2.61"/>
<rect x="90.043" y="67.667" fill="#153744" width="7.832" height="2.611"/>
<path fill="#153744" d="M95.264,44.174H78.266c0.691-1.647,1.109-3.408,1.252-5.221H96.57c3.599,0,6.526-2.928,6.526-6.526
	c0-3.599-2.928-6.526-6.526-6.526H74.851c-0.153-0.158-0.291-0.325-0.45-0.479c-3.354-3.228-7.77-4.907-12.428-4.73
	c-4.442,0.171-8.502,2.156-11.461,5.209H33.684l-9.44,3.54c-1.239,0.463-2.07,1.664-2.07,2.986c0,1.322,0.832,2.523,2.069,2.986
	l9.442,3.54h12.06c0.141,1.818,0.573,3.574,1.263,5.221H30.004v13.052h-7.831V75.5h18.273V57.226h-7.831V46.784h15.662v-0.175
	c1.316,2.103,3.067,3.942,5.221,5.321v1.38h-2.611v2.61h2.611v2.61h-2.611v2.61h2.715c0.637,4.419,4.439,7.831,9.032,7.831
	s8.396-3.411,9.032-7.831h2.715v-2.61H71.77v-2.61h2.611v-2.61H71.77V51.93c2.148-1.377,3.903-3.222,5.222-5.332v0.187h15.663
	v10.442h-7.832V75.5h18.273V57.226h-7.832V44.174z M37.835,72.888H24.783V59.836h13.052V72.888z M79.133,33.732h5.689v2.61h-5.286
	C79.47,35.455,79.334,34.584,79.133,33.732z M87.433,28.511h2.61v7.832h-2.61V28.511z M100.485,32.427
	c0,2.159-1.756,3.916-3.915,3.916h-3.915v-7.832h3.915C98.729,28.511,100.485,30.268,100.485,32.427z M84.823,28.511v2.61h-6.52
	c-0.379-0.908-0.848-1.777-1.383-2.61H84.823z M35.225,33.732h10.926c-0.209,0.85-0.343,1.721-0.414,2.61H35.225V33.732z
	 M35.225,31.122v-2.61h13.206c-0.566,0.866-1.056,1.78-1.459,2.74v-0.129H35.225z M24.783,32.427c0-0.24,0.15-0.457,0.376-0.542
	l7.456-2.795v6.675l-7.457-2.796C24.934,32.884,24.783,32.667,24.783,32.427z M62.634,66.363c-3.151,0-5.787-2.246-6.394-5.221
	h12.788C68.421,64.117,65.786,66.363,62.634,66.363z M69.161,58.531H56.108v-2.61h13.052V58.531z M58.719,40.258h-2.61
	c-1.44,0-2.61-1.171-2.61-2.61s1.17-2.61,2.61-2.61c1.439,0,2.61,1.171,2.61,2.61V40.258z M63.94,53.311h-2.611V42.869h2.611V53.311
	z M69.811,50.068l-0.65,0.377v2.865h-2.611V42.869h2.611c2.879,0,5.221-2.341,5.221-5.221s-2.342-5.221-5.221-5.221
	s-5.221,2.341-5.221,5.221v2.61h-2.611v-2.61c0-2.879-2.342-5.221-5.221-5.221c-2.879,0-5.221,2.341-5.221,5.221
	s2.342,5.221,5.221,5.221h2.61v10.442h-2.61v-2.865l-0.651-0.377c-4.546-2.634-7.296-7.522-7.176-12.757
	c0.171-7.441,6.356-13.726,13.79-14.009c0.191-0.009,0.378-0.012,0.568-0.012c3.735,0,7.251,1.414,9.952,4.012
	c2.838,2.732,4.401,6.406,4.401,10.345C76.992,42.744,74.241,47.502,69.811,50.068z M66.549,40.258v-2.61
	c0-1.439,1.172-2.61,2.611-2.61s2.609,1.171,2.609,2.61s-1.17,2.61-2.609,2.61H66.549z M100.485,72.888H87.433V59.836h13.052V72.888
	z"/>
</svg>
