<?xml version="1.0" encoding="utf-8"?>
<!-- Generator: Adobe Illustrator 16.0.0, SVG Export Plug-In . SVG Version: 6.00 Build 0)  -->
<!DOCTYPE svg PUBLIC "-//W3C//DTD SVG 1.1//EN" "http://www.w3.org/Graphics/SVG/1.1/DTD/svg11.dtd">
<svg version="1.1" id="Слой_1" xmlns="http://www.w3.org/2000/svg" xmlns:xlink="http://www.w3.org/1999/xlink" x="0px" y="0px"
	 width="125.778px" height="121.704px" viewBox="0 0 125.778 121.704" enable-background="new 0 0 125.778 121.704"
	 xml:space="preserve">
<g>
	<circle fill="#95D600" cx="32.435" cy="78.398" r="5.881"/>
	<circle fill="#95D600" cx="93.603" cy="78.398" r="5.881"/>
	<circle fill="#95D600" cx="93.603" cy="45.462" r="5.881"/>
	<circle fill="#95D600" cx="63.019" cy="31.347" r="5.882"/>
	<circle fill="#95D600" cx="32.435" cy="45.462" r="5.881"/>
	<circle fill="#95D600" cx="63.019" cy="92.513" r="5.882"/>
</g>
<g>
	<path fill="#153744" d="M95.514,75.342c-1.381-0.796-3.07-0.539-4.175,0.501l-6.251-3.366c0.916-1.328,1.456-2.935,1.456-4.666
		c0-4.123-3.045-7.548-7.058-8.14c0-0.032,0-0.063,0-0.094c0-1.655-0.347-3.229-0.967-4.658l12.81-6.898
		c0.661,0.624,1.531,0.968,2.425,0.968c0.598,0,1.203-0.151,1.758-0.472c1.686-0.973,2.265-3.136,1.292-4.82
		c-0.975-1.687-3.136-2.264-4.82-1.292c-1.272,0.735-1.913,2.149-1.73,3.523L77.37,52.866c-2.127-3.048-5.655-5.051-9.646-5.051
		c-1.218,0-2.402,0.201-3.529,0.556V34.659c1.366-0.487,2.354-1.781,2.354-3.313c0-1.945-1.584-3.529-3.529-3.529
		s-3.529,1.583-3.529,3.529c0,1.532,0.987,2.826,2.353,3.313v14.75c-1.255,0.728-2.385,1.676-3.312,2.839
		c-1.155-0.594-2.431-0.904-3.745-0.904c-2.026,0-3.88,0.739-5.315,1.955l-13.686-7.369c0.182-1.374-0.458-2.788-1.73-3.523
		c-1.685-0.973-3.848-0.394-4.82,1.292s-0.394,3.848,1.292,4.82c0.554,0.32,1.159,0.472,1.758,0.472
		c0.892,0,1.764-0.344,2.425-0.968l13.169,7.092c-0.836,1.287-1.326,2.818-1.326,4.464c0,0.028,0,0.055,0,0.083
		c-3.985,0.571-7.058,4.009-7.058,8.15c0,1.731,0.54,3.338,1.457,4.666l-6.251,3.366c-1.104-1.04-2.795-1.297-4.174-0.501
		c-1.687,0.973-2.265,3.136-1.292,4.82c0.652,1.13,1.841,1.765,3.061,1.765c0.6,0,1.204-0.152,1.759-0.472
		c1.272-0.735,1.913-2.149,1.729-3.523l6.83-3.677c1.407,1.116,3.182,1.791,5.114,1.791h14.115v13.155
		c-1.365,0.487-2.353,1.781-2.353,3.313c0,1.945,1.584,3.529,3.529,3.529s3.529-1.583,3.529-3.529c0-1.532-0.987-2.826-2.354-3.313
		V76.046h14.116c1.933,0,3.707-0.674,5.113-1.792l6.829,3.677c-0.182,1.374,0.458,2.788,1.73,3.523
		c0.555,0.32,1.161,0.473,1.76,0.473c1.221,0,2.409-0.633,3.062-1.765C97.776,78.477,97.197,76.315,95.514,75.342z M93.161,44.443
		c0.185-0.107,0.386-0.158,0.585-0.158c0.408,0,0.804,0.211,1.021,0.588c0.324,0.563,0.132,1.282-0.431,1.607
		c-0.563,0.322-1.282,0.132-1.606-0.431C92.404,45.488,92.599,44.768,93.161,44.443z M63.019,30.17c0.648,0,1.176,0.528,1.176,1.176
		c0,0.648-0.527,1.176-1.176,1.176s-1.177-0.528-1.177-1.176C61.842,30.699,62.37,30.17,63.019,30.17z M33.308,46.05
		c-0.325,0.563-1.048,0.754-1.607,0.431c-0.562-0.325-0.754-1.044-0.43-1.607c0.217-0.376,0.612-0.588,1.02-0.588
		c0.2,0,0.401,0.051,0.587,0.158C33.438,44.768,33.633,45.488,33.308,46.05z M32.876,79.417c-0.563,0.324-1.282,0.13-1.605-0.431
		c-0.324-0.563-0.132-1.282,0.431-1.607c0.185-0.107,0.386-0.157,0.585-0.157c0.408,0,0.805,0.21,1.021,0.588
		C33.633,78.372,33.438,79.092,32.876,79.417z M63.019,93.69c-0.648,0-1.177-0.528-1.177-1.176s0.528-1.176,1.177-1.176
		s1.176,0.528,1.176,1.176S63.667,93.69,63.019,93.69z M47.727,73.693c-3.242,0-5.881-2.639-5.881-5.882s2.639-5.881,5.847-5.882
		l1.539,0.028l-0.237-1.396c-0.062-0.355-0.091-0.677-0.091-0.983c0-3.243,2.639-5.881,5.882-5.881c1.217,0,2.388,0.373,3.386,1.079
		l0.999,0.706l0.667-1.024c1.746-2.686,4.695-4.289,7.887-4.289c5.189,0,9.41,4.222,9.41,9.41c0,0.355-0.024,0.705-0.063,1.05
		l-0.075,1.302h1.314c3.242,0,5.881,2.638,5.881,5.881s-2.639,5.882-5.881,5.882H47.727z M94.767,78.986
		c-0.324,0.561-1.047,0.754-1.606,0.431c-0.563-0.324-0.756-1.045-0.433-1.606c0.219-0.377,0.614-0.588,1.021-0.588
		c0.199,0,0.401,0.051,0.587,0.158C94.898,77.704,95.091,78.424,94.767,78.986z"/>
	<path fill="#153744" d="M67.724,52.52v2.353c2.595,0,4.705,2.11,4.705,4.705h2.353C74.781,55.685,71.616,52.52,67.724,52.52z"/>
	<path fill="#153744" d="M78.311,64.283v2.353c0.647,0,1.176,0.528,1.176,1.176c0,0.648-0.528,1.176-1.176,1.176v2.353
		c1.945,0,3.528-1.583,3.528-3.529C81.839,65.866,80.256,64.283,78.311,64.283z"/>
	<rect x="73.605" y="68.988" fill="#153744" width="2.353" height="2.353"/>
	<rect x="53.608" y="68.988" fill="#153744" width="10.586" height="2.353"/>
	<rect x="48.903" y="68.988" fill="#153744" width="2.353" height="2.353"/>
</g>
</svg>
