<?xml version="1.0" encoding="utf-8"?>
<!-- Generator: Adobe Illustrator 25.0.1, SVG Export Plug-In . SVG Version: 6.00 Build 0)  -->
<svg version="1.1" id="Слой_1" xmlns="http://www.w3.org/2000/svg" xmlns:xlink="http://www.w3.org/1999/xlink" x="0px" y="0px"
	 viewBox="0 0 125.8 121.7" style="enable-background:new 0 0 125.8 121.7;" xml:space="preserve">
<style type="text/css">
	.st0{fill:#95D600;}
	.st1{fill:#153744;}
</style>
<g>
	<circle class="st0" cx="32.4" cy="78.4" r="5.9"/>
	<circle class="st0" cx="93.6" cy="78.4" r="5.9"/>
	<circle class="st0" cx="93.6" cy="45.5" r="5.9"/>
	<circle class="st0" cx="63" cy="31.3" r="5.9"/>
	<circle class="st0" cx="32.4" cy="45.5" r="5.9"/>
	<circle class="st0" cx="63" cy="92.5" r="5.9"/>
</g>
<g>
	<path class="st1" d="M66.4,92.2L78,86.8c-0.2-0.4-0.4-0.7-0.5-1.1c-0.2-0.4-0.3-0.7-0.5-1.1l-11.7,5.4c-1-1-2.6-1.4-4-0.7
		c-1.8,0.8-2.5,2.9-1.7,4.7c0.8,1.8,2.9,2.5,4.7,1.7C65.7,95.1,66.5,93.7,66.4,92.2z M61.8,93c-0.3-0.6,0-1.3,0.6-1.6
		c0.6-0.3,1.3,0,1.6,0.6c0.3,0.6,0,1.3-0.6,1.6C62.8,93.9,62.1,93.6,61.8,93z"/>
	<path class="st1" d="M90.2,78.6L78.5,84c0.2,0.4,0.4,0.7,0.5,1.1c0.2,0.4,0.3,0.7,0.5,1.1l11.7-5.4c1,1,2.6,1.4,4,0.7
		c1.8-0.8,2.5-2.9,1.7-4.7s-2.9-2.5-4.7-1.7C90.8,75.8,90.1,77.2,90.2,78.6z M94.8,77.8c0.3,0.6,0,1.3-0.6,1.6
		c-0.6,0.3-1.3,0-1.6-0.6c-0.3-0.6,0-1.3,0.6-1.6C93.8,77,94.5,77.2,94.8,77.8z"/>
	<path class="st1" d="M81.8,84C81.8,84,81.8,84,81.8,84c-0.2-0.4-0.4-0.8-0.5-1.2l-8.7,4c0.2,0.4,0.4,0.7,0.5,1.1
		c0.2,0.4,0.3,0.7,0.5,1.1l8.6-4C82,84.7,81.9,84.3,81.8,84z"/>
</g>
<g>
	<path class="st1" d="M33.5,75.3l0-12.9c-0.4,0-0.8,0-1.2,0c-0.4,0-0.8,0-1.2,0l0,12.8c-1.4,0.5-2.4,1.8-2.4,3.3
		c0,1.9,1.6,3.5,3.5,3.5s3.5-1.6,3.5-3.5C35.9,77,34.9,75.8,33.5,75.3z M32.3,79.7c-0.6,0-1.2-0.5-1.2-1.2c0-0.6,0.5-1.2,1.2-1.2
		c0.6,0,1.2,0.5,1.2,1.2S33,79.7,32.3,79.7z"/>
	<path class="st1" d="M31.3,48.9l0,12.9c0.4,0,0.8,0,1.2,0c0.4,0,0.8,0,1.2,0l0-12.8c1.4-0.5,2.4-1.8,2.4-3.3c0-1.9-1.6-3.5-3.5-3.5
		s-3.5,1.6-3.5,3.5C28.9,47.1,29.9,48.4,31.3,48.9z M32.5,44.4c0.6,0,1.2,0.5,1.2,1.2c0,0.6-0.5,1.2-1.2,1.2c-0.6,0-1.2-0.5-1.2-1.2
		S31.8,44.4,32.5,44.4z"/>
	<path class="st1" d="M32.6,58.8C32.6,58.8,32.6,58.8,32.6,58.8c-0.5,0-0.9,0-1.3-0.1l0,9.5c0.4,0,0.8,0,1.2,0c0.4,0,0.8,0,1.2,0
		l0-9.4C33.3,58.9,32.9,58.9,32.6,58.8z"/>
</g>
<g>
	<path class="st1" d="M65.4,33.8l11.7,5.3c0.2-0.4,0.3-0.7,0.5-1.1c0.2-0.4,0.3-0.7,0.5-1l-11.7-5.3c0.1-1.4-0.6-2.9-2-3.5
		c-1.8-0.8-3.9,0-4.7,1.7c-0.8,1.8,0,3.9,1.7,4.7C62.8,35.2,64.4,34.8,65.4,33.8z M61.8,30.8c0.3-0.6,1-0.9,1.6-0.6
		c0.6,0.3,0.9,1,0.6,1.6c-0.3,0.6-1,0.9-1.6,0.6C61.8,32.1,61.5,31.4,61.8,30.8z"/>
	<path class="st1" d="M91.4,43.1l-11.7-5.3c-0.2,0.4-0.3,0.7-0.5,1.1c-0.2,0.4-0.3,0.7-0.5,1l11.7,5.3c-0.1,1.4,0.6,2.9,2,3.5
		c1.8,0.8,3.9,0,4.7-1.7c0.8-1.8,0-3.9-1.7-4.7C94,41.7,92.4,42.1,91.4,43.1z M95,46c-0.3,0.6-1,0.9-1.6,0.6s-0.9-1-0.6-1.6
		c0.3-0.6,1-0.9,1.6-0.6C95,44.8,95.3,45.5,95,46z"/>
	<path class="st1" d="M80.7,39.7C80.7,39.7,80.7,39.7,80.7,39.7c0.2-0.4,0.4-0.8,0.6-1.2l-8.7-4c-0.2,0.4-0.3,0.7-0.5,1.1
		c-0.2,0.4-0.3,0.7-0.5,1l8.6,3.9C80.4,40.3,80.6,40,80.7,39.7z"/>
</g>
</svg>
