<?xml version="1.0" encoding="utf-8"?>
<!-- Generator: Adobe Illustrator 16.0.0, SVG Export Plug-In . SVG Version: 6.00 Build 0)  -->
<!DOCTYPE svg PUBLIC "-//W3C//DTD SVG 1.1//EN" "http://www.w3.org/Graphics/SVG/1.1/DTD/svg11.dtd">
<svg version="1.1" id="Слой_1" xmlns="http://www.w3.org/2000/svg" xmlns:xlink="http://www.w3.org/1999/xlink" x="0px" y="0px"
	 width="125.778px" height="121.704px" viewBox="0 0 125.778 121.704" enable-background="new 0 0 125.778 121.704"
	 xml:space="preserve">
<g>
	<g>
		<path fill="#95D600" d="M39.787,88.354v-8.8h4.186l-7.486-11.977l-7.485,11.977h4.186v12.101c0,1.82,1.48,3.301,3.3,3.301h13.2
			v-6.601H39.787z"/>
		<path fill="#95D600" d="M92.591,42.15V30.049c0-1.82-1.48-3.301-3.3-3.301H76.089v6.601h9.901v8.8h-4.186l7.486,11.977
			l7.485-11.977H92.591z"/>
	</g>
	<path fill="#153744" d="M96.991,72.952v-8.8h-14.58c0.182-1.086,0.279-2.191,0.279-3.3c0-10.918-8.883-19.801-19.802-19.801
		c-1.879,0-3.721,0.268-5.5,0.782V37.75h-3.301v-2.2h3.301v-8.801H28.786v8.801h3.3v2.2h-3.3v8.8h3.3v2.201h-3.3v8.8h14.58
		c-0.182,1.087-0.279,2.191-0.279,3.3c0,10.918,8.883,19.801,19.802,19.801c1.879,0,3.721-0.269,5.5-0.781v4.082h3.301v2.2h-3.301
		v8.801h28.603v-8.801h-3.3v-2.2h3.3v-8.8h-3.3v-2.201H96.991z M94.791,70.752H70.589v-4.4h24.202V70.752z M30.986,28.949h24.202
		v4.401H30.986V28.949z M34.286,35.55h17.602v2.2H34.286V35.55z M30.986,39.95h24.202v4.4H30.986V39.95z M34.286,46.55h17.602v2.201
		H34.286V46.55z M30.986,50.951h24.202v4.4H30.986V50.951z M62.889,78.453c-9.704,0-17.602-7.896-17.602-17.601
		c0-1.112,0.133-2.214,0.34-3.3h11.762v-8.8h-3.301V46.55h3.301v-2.406c1.769-0.582,3.612-0.894,5.5-0.894
		c9.704,0,17.602,7.896,17.602,17.601c0,1.112-0.133,2.215-0.34,3.3H68.389v8.8h3.301v2.201h-3.301v2.406
		C66.62,78.141,64.776,78.453,62.889,78.453z M94.791,92.754H70.589v-4.401h24.202V92.754z M91.491,86.153H73.89v-2.2h17.602V86.153
		z M94.791,81.753H70.589v-4.4h24.202V81.753z M91.491,75.153H73.89v-2.201h17.602V75.153z"/>
	<path fill="#153744" d="M76.089,60.852c0,0.343-0.012,0.68-0.038,1.016l2.194,0.169c0.029-0.391,0.045-0.786,0.045-1.185
		c0-6.707-4.286-12.597-10.662-14.658l-0.677,2.092C72.417,50.053,76.089,55.103,76.089,60.852z"/>
	<path fill="#153744" d="M62.889,47.65c0.684,0,1.367,0.053,2.031,0.157l0.339-2.175c-0.776-0.12-1.572-0.182-2.37-0.182V47.65z"/>
	<path fill="#153744" d="M49.687,60.852c0-0.343,0.014-0.68,0.04-1.016l-2.194-0.169c-0.029,0.391-0.045,0.786-0.045,1.185
		c0,6.707,4.286,12.597,10.662,14.657l0.677-2.092C53.36,71.65,49.687,66.601,49.687,60.852z"/>
	<path fill="#153744" d="M60.52,76.071c0.775,0.12,1.571,0.182,2.369,0.182v-2.2c-0.684,0-1.368-0.053-2.031-0.157L60.52,76.071z"/>
	<circle fill="#95D600" cx="62.889" cy="60.852" r="6.601"/>
</g>
</svg>
