<?xml version="1.0" encoding="utf-8"?>
<!-- Generator: Adobe Illustrator 16.0.0, SVG Export Plug-In . SVG Version: 6.00 Build 0)  -->
<!DOCTYPE svg PUBLIC "-//W3C//DTD SVG 1.1//EN" "http://www.w3.org/Graphics/SVG/1.1/DTD/svg11.dtd">
<svg version="1.1" id="Слой_1" xmlns="http://www.w3.org/2000/svg" xmlns:xlink="http://www.w3.org/1999/xlink" x="0px" y="0px"
	 width="125.778px" height="121.704px" viewBox="0 0 125.778 121.704" enable-background="new 0 0 125.778 121.704"
	 xml:space="preserve">
<circle fill="#95D600" cx="62.889" cy="53.604" r="22.951"/>
<path fill="#153744" d="M99.291,94.247c-0.919-2.3-2.774-4.044-5.073-4.842c1.67-1.358,3.064-3.141,3.46-3.669l0.766-1.022
	l-1.062-0.708c-1.932-1.287-3.086-3.443-3.086-5.765v-1.686v-6.039c0-2.95-0.978-5.668-2.61-7.875
	c0.915-2.916,1.402-5.947,1.402-9.037c0-16.652-13.547-30.199-30.198-30.199S32.691,36.953,32.691,53.604
	c0,3.09,0.48,6.125,1.396,9.043c-1.628,2.206-2.604,4.921-2.604,7.868v6.039c0,2.353,1.689,4.31,3.918,4.74
	c0.638,2.57,2.303,4.735,4.538,6.032v0.318l-7.259,1.452c-2.813,0.562-5.128,2.487-6.193,5.151l-1.62,4.05h36.238h3.568h36.238
	L99.291,94.247z M95.002,85.213c-1.477,1.746-3.303,3.347-4.27,3.409l-4.894-0.979v-0.317c2.235-1.297,3.899-3.462,4.538-6.032
	c0.656-0.127,1.268-0.383,1.801-0.748C92.635,82.342,93.608,83.971,95.002,85.213z M71.283,88.624
	c-0.966-0.062-2.794-1.663-4.27-3.409c1.396-1.243,2.367-2.872,2.824-4.667c0.533,0.365,1.146,0.622,1.803,0.748
	c0.638,2.57,2.302,4.735,4.536,6.032v0.318L71.283,88.624z M35.996,60.563c-0.484-1.875-0.758-3.8-0.841-5.751H47.24
	c0.034,0.896,0.107,1.792,0.221,2.69c-0.869-0.179-1.769-0.274-2.69-0.274C41.407,57.228,38.339,58.495,35.996,60.563z
	 M68.131,67.296c-1.301-0.203-2.657-0.329-4.034-0.374v-12.11h12.025c-0.049,1.162-0.153,2.329-0.345,3.492
	C72.006,59.925,69.145,63.247,68.131,67.296z M81.008,86.219c-3.998,0-7.247-3.251-7.247-7.248v-4.888
	c2.689-0.249,5.205-1.326,7.247-3.108c2.041,1.782,4.557,2.859,7.248,3.108v4.888C88.256,82.968,85.005,86.219,81.008,86.219z
	 M71.344,78.635c-0.719-0.419-1.208-1.189-1.208-2.08c0-0.89,0.489-1.661,1.208-2.08V78.635z M64.097,52.396V40.276
	c3.272-0.109,6.027-0.635,8.316-1.381c1.983,3.896,3.515,8.474,3.729,13.5H64.097V52.396z M64.097,37.863V27.427
	c1.848,1.887,4.679,5.111,7.139,9.317C69.256,37.342,66.887,37.764,64.097,37.863z M66.125,26.016
	c5.081,0.593,9.746,2.559,13.614,5.519c-0.654,0.805-2.55,2.811-6.151,4.359C71.078,31.493,68.153,28.099,66.125,26.016z
	 M61.681,27.427v10.436c-2.791-0.099-5.159-0.52-7.139-1.119C57.002,32.537,59.833,29.313,61.681,27.427z M52.19,35.896
	c-3.602-1.55-5.497-3.556-6.151-4.359c3.869-2.961,8.534-4.927,13.613-5.519C57.625,28.099,54.701,31.493,52.19,35.896z
	 M61.681,40.276v12.121H49.634c0.216-5.026,1.748-9.605,3.73-13.5C55.654,39.641,58.409,40.167,61.681,40.276z M50,58.304
	c-0.19-1.163-0.295-2.33-0.345-3.492h12.026v12.109c-1.377,0.045-2.733,0.171-4.034,0.374C56.633,63.247,53.772,59.925,50,58.304z
	 M54.434,78.635v-4.16c0.719,0.419,1.208,1.189,1.208,2.08C55.642,77.445,55.153,78.216,54.434,78.635z M58.057,76.555v-6.039
	c0-0.273-0.023-0.539-0.04-0.808c1.182-0.186,2.407-0.3,3.664-0.345v11.982c-1.92-0.085-3.829-0.366-5.689-0.838
	C57.237,79.63,58.057,78.189,58.057,76.555z M64.097,69.363c1.256,0.045,2.482,0.159,3.664,0.345
	c-0.017,0.269-0.041,0.535-0.041,0.808v6.039v1.686c0,0.988-0.219,1.941-0.608,2.814c-0.998,0.152-2.004,0.263-3.015,0.305V69.363z
	 M78.592,88.317c0.773,0.2,1.579,0.317,2.416,0.317c0.836,0,1.642-0.117,2.416-0.317v0.317c0,1.332-1.084,2.416-2.416,2.416
	s-2.416-1.084-2.416-2.416V88.317z M90.671,78.635v-4.16c0.719,0.419,1.208,1.189,1.208,2.08
	C91.879,77.445,91.39,78.216,90.671,78.635z M91.879,72.395c-0.714-0.416-1.531-0.672-2.416-0.672c-2.793,0-5.419-1.087-7.395-3.063
	L81.008,67.6l-1.061,1.061c-1.977,1.976-4.603,3.063-7.395,3.063c-0.885,0-1.702,0.256-2.417,0.672v-1.879
	c0-5.994,4.878-10.872,10.872-10.872s10.871,4.877,10.871,10.872V72.395z M90.641,52.396h-2.385v2.416h2.364
	c-0.083,1.954-0.347,3.882-0.831,5.758c-2.343-2.072-5.414-3.342-8.781-3.342c-0.922,0-1.821,0.095-2.69,0.274
	c0.112-0.898,0.187-1.794,0.221-2.69h7.301v-2.416H78.56c-0.207-5.39-1.777-10.25-3.833-14.373c3.891-1.719,6.031-3.93,6.865-4.944
	C86.889,37.911,90.313,44.759,90.641,52.396z M44.186,33.079c0.834,1.013,2.975,3.226,6.865,4.944
	c-2.056,4.123-3.626,8.983-3.833,14.372h-12.08C35.465,44.759,38.888,37.911,44.186,33.079z M44.77,59.644
	c5.993,0,10.872,4.877,10.872,10.872v1.879c-0.715-0.416-1.532-0.672-2.417-0.672c-2.792,0-5.418-1.087-7.395-3.063L44.77,67.6
	l-1.061,1.061c-1.977,1.976-4.603,3.063-7.396,3.063c-0.884,0-1.701,0.256-2.415,0.672v-1.879
	C33.899,64.521,38.776,59.644,44.77,59.644z M33.899,76.555c0-0.89,0.488-1.661,1.207-2.08v4.16
	C34.387,78.216,33.899,77.445,33.899,76.555z M37.522,78.971v-4.888c2.69-0.249,5.206-1.326,7.248-3.108
	c2.042,1.782,4.558,2.859,7.247,3.108v4.888c0,3.997-3.249,7.248-7.247,7.248C40.773,86.219,37.522,82.968,37.522,78.971z
	 M42.354,88.317c0.774,0.2,1.58,0.317,2.416,0.317s1.642-0.117,2.416-0.317v0.317c0,1.332-1.084,2.416-2.416,2.416
	s-2.416-1.084-2.416-2.416V88.317L42.354,88.317z M28.435,95.882l0.296-0.738c0.76-1.902,2.415-3.277,4.423-3.679l7.024-1.404
	c0.611,1.965,2.428,3.406,4.592,3.406c2.165,0,3.979-1.441,4.592-3.406l7.024,1.404c2.01,0.402,3.663,1.777,4.423,3.679l0.296,0.738
	H28.435z M62.889,93.901c-1.123-2.479-3.342-4.268-6.029-4.804l-7.258-1.453v-0.317c1.912-1.11,3.406-2.856,4.198-4.947
	c2.932,0.927,5.979,1.423,9.089,1.423c0.712,0,1.424-0.042,2.134-0.091c-0.128,0.099-0.252,0.204-0.388,0.294l-1.063,0.708
	l0.767,1.022c0.396,0.529,1.79,2.313,3.459,3.669C65.619,90.161,63.852,91.776,62.889,93.901z M64.673,95.882l0.296-0.738
	c0.76-1.902,2.414-3.277,4.424-3.679l7.023-1.404c0.611,1.965,2.427,3.406,4.592,3.406c2.164,0,3.98-1.441,4.592-3.406l7.025,1.404
	c2.008,0.402,3.662,1.777,4.422,3.679l0.295,0.738H64.673z"/>
</svg>
