<?xml version="1.0" encoding="utf-8"?>
<!-- Generator: Adobe Illustrator 18.0.0, SVG Export Plug-In . SVG Version: 6.00 Build 0)  -->
<!DOCTYPE svg PUBLIC "-//W3C//DTD SVG 1.1//EN" "http://www.w3.org/Graphics/SVG/1.1/DTD/svg11.dtd">
<svg version="1.1" id="Слой_1" xmlns="http://www.w3.org/2000/svg" xmlns:xlink="http://www.w3.org/1999/xlink" x="0px" y="0px"
	 viewBox="0 0 125.8 121.7" enable-background="new 0 0 125.8 121.7" xml:space="preserve">
<g>
	<circle fill="#95D600" cx="63.4" cy="59.5" r="13.8"/>
	<path fill="#153744" d="M63.4,40.7c-10.4,0-18.9,8.5-18.9,18.9S53,78.4,63.4,78.4s18.9-8.5,18.9-18.9S73.8,40.7,63.4,40.7z
		 M73.4,58.3c-0.2-3-0.9-5.6-1.9-7.9c1.8-0.8,3.1-1.7,3.7-2.2c2.5,2.7,4.2,6.2,4.5,10H73.4z M64.7,44.7c1,1,2.2,2.4,3.3,4.2
		c-1,0.2-2.1,0.4-3.3,0.5V44.7z M67.1,43.6c2.3,0.5,4.4,1.5,6.2,2.9c-0.6,0.4-1.5,1-2.9,1.6C69.3,46.3,68.1,44.8,67.1,43.6z
		 M62.1,44.8v4.7c-1.2-0.1-2.3-0.2-3.2-0.5C60,47.2,61.2,45.8,62.1,44.8z M56.4,48.2c-1.4-0.6-2.3-1.2-2.9-1.6
		c1.8-1.4,3.9-2.4,6.2-2.9C58.7,44.8,57.5,46.3,56.4,48.2z M62.1,52v6.3h-6.2c0.2-2.7,0.8-5,1.8-7C59,51.6,60.5,51.9,62.1,52z
		 M62.1,60.8v6.3c-1.7,0.1-3.2,0.4-4.5,0.7c-0.9-2-1.6-4.4-1.8-7L62.1,60.8L62.1,60.8z M62.1,69.6v4.7c-1-1-2.2-2.4-3.3-4.2
		C59.9,69.9,60.9,69.7,62.1,69.6z M59.7,75.5c-2.3-0.5-4.4-1.5-6.2-2.9c0.6-0.4,1.5-1,2.9-1.6C57.5,72.8,58.7,74.3,59.7,75.5z
		 M64.7,74.3v-4.7c1.2,0.1,2.3,0.3,3.2,0.5C66.8,71.9,65.6,73.3,64.7,74.3z M70.4,70.9c1.4,0.6,2.3,1.2,2.9,1.6
		c-1.8,1.4-3.9,2.4-6.2,2.9C68.1,74.3,69.3,72.8,70.4,70.9z M64.7,67.1v-6.3h6.2c-0.2,2.7-0.8,5-1.8,7
		C67.8,67.5,66.3,67.2,64.7,67.1z M64.7,58.3V52c1.7-0.1,3.2-0.4,4.5-0.7c0.9,2,1.6,4.4,1.8,7C70.9,58.3,64.7,58.3,64.7,58.3z
		 M51.6,48.2c0.6,0.5,1.8,1.4,3.7,2.2c-1,2.2-1.7,4.9-1.9,7.9h-6.3C47.4,54.4,49.1,50.9,51.6,48.2z M47.1,60.8h6.3
		c0.2,3,0.9,5.6,1.9,7.9c-1.8,0.8-3.1,1.7-3.7,2.2C49.1,68.2,47.4,64.7,47.1,60.8z M75.2,70.8c-0.6-0.5-1.8-1.4-3.7-2.2
		c1-2.2,1.7-4.9,1.9-7.9h6.3C79.4,64.7,77.7,68.2,75.2,70.8z"/>
	<path fill="#153744" d="M96.1,53.3c-0.3,0-0.6,0-0.9,0.1L90.6,41c1.8-1.1,3-3.1,3-5.3c0-3.5-2.8-6.3-6.3-6.3c-2.3,0-4.2,1.2-5.3,3
		l-12.4-4.6c0-0.3,0.1-0.6,0.1-0.9c0-3.5-2.8-6.3-6.3-6.3c-3.5,0-6.3,2.8-6.3,6.3c0,0.3,0,0.6,0.1,0.9l-12.4,4.6
		c-1.1-1.8-3.1-3-5.3-3c-3.5,0-6.3,2.8-6.3,6.3c0,2.3,1.2,4.2,3,5.3l-4.6,12.4c-0.3,0-0.6-0.1-0.9-0.1c-3.5,0-6.3,2.8-6.3,6.3
		s2.8,6.3,6.3,6.3c0.3,0,0.6,0,0.9-0.1l4.6,12.4c-1.8,1.1-3,3.1-3,5.3c0,3.5,2.8,6.3,6.3,6.3c2.3,0,4.2-1.2,5.3-3l12.4,4.6
		c0,0.3-0.1,0.6-0.1,0.9c0,3.5,2.8,6.3,6.3,6.3c3.5,0,6.3-2.8,6.3-6.3c0-0.3,0-0.6-0.1-0.9L82,86.7c1.1,1.8,3.1,3,5.3,3
		c3.5,0,6.3-2.8,6.3-6.3c0-2.3-1.2-4.2-3-5.3l4.6-12.4c0.3,0,0.6,0.1,0.9,0.1c3.5,0,6.3-2.8,6.3-6.3C102.4,56.1,99.6,53.3,96.1,53.3
		z M87.3,31.9c2.1,0,3.8,1.7,3.8,3.8c0,2.1-1.7,3.8-3.8,3.8s-3.8-1.7-3.8-3.8C83.5,33.6,85.2,31.9,87.3,31.9z M63.4,23.1
		c2.1,0,3.8,1.7,3.8,3.8s-1.7,3.8-3.8,3.8c-2.1,0-3.8-1.7-3.8-3.8S61.3,23.1,63.4,23.1z M39.5,31.9c2.1,0,3.8,1.7,3.8,3.8
		c0,2.1-1.7,3.8-3.8,3.8c-2.1,0-3.8-1.7-3.8-3.8C35.7,33.6,37.4,31.9,39.5,31.9z M26.9,59.5c0-2.1,1.7-3.8,3.8-3.8
		c2.1,0,3.8,1.7,3.8,3.8s-1.7,3.8-3.8,3.8S26.9,61.6,26.9,59.5z M39.5,87.2c-2.1,0-3.8-1.7-3.8-3.8c0-2.1,1.7-3.8,3.8-3.8
		c2.1,0,3.8,1.7,3.8,3.8C43.3,85.5,41.6,87.2,39.5,87.2z M63.4,96c-2.1,0-3.8-1.7-3.8-3.8s1.7-3.8,3.8-3.8c2.1,0,3.8,1.7,3.8,3.8
		S65.5,96,63.4,96z M87.3,87.2c-2.1,0-3.8-1.7-3.8-3.8c0-2.1,1.7-3.8,3.8-3.8s3.8,1.7,3.8,3.8C91.1,85.5,89.4,87.2,87.3,87.2z
		 M88.2,77.2c-0.3,0-0.6-0.1-0.9-0.1c-1.3,0-2.5,0.4-3.5,1l-3.5-3.5l-1.8,1.8l3.5,3.5c-0.7,1-1,2.2-1,3.5c0,0.3,0,0.6,0.1,0.9
		l-12.4,4.6c-0.9-1.4-2.3-2.5-4.1-2.9v-3.9h-2.5v3.9c-1.7,0.4-3.2,1.4-4.1,2.9l-12.4-4.6c0-0.3,0.1-0.6,0.1-0.9c0-1.3-0.4-2.5-1-3.5
		l3.5-3.5l-1.8-1.8L43,78.2c-1-0.7-2.2-1-3.5-1c-0.3,0-0.6,0-0.9,0.1L34,64.9c1.4-0.9,2.5-2.3,2.9-4.1h3.9v-2.5h-3.9
		c-0.4-1.7-1.4-3.2-2.9-4.1l4.6-12.4c0.3,0,0.6,0.1,0.9,0.1c1.3,0,2.5-0.4,3.5-1l3.5,3.5l1.8-1.8l-3.5-3.5c0.7-1,1-2.2,1-3.5
		c0-0.3,0-0.6-0.1-0.9l12.4-4.6c0.9,1.4,2.3,2.5,4.1,2.9v3.9h2.5V33c1.7-0.4,3.2-1.4,4.1-2.9l12.4,4.6c0,0.3-0.1,0.6-0.1,0.9
		c0,1.3,0.4,2.5,1,3.5l-3.5,3.5l1.8,1.8l3.5-3.5c1,0.7,2.2,1,3.5,1c0.3,0,0.6,0,0.9-0.1l4.6,12.4c-1.4,0.9-2.5,2.3-2.9,4.1H86v2.5
		h3.9c0.4,1.7,1.4,3.2,2.9,4.1L88.2,77.2z M96.1,63.3c-2.1,0-3.8-1.7-3.8-3.8c0-2.1,1.7-3.8,3.8-3.8s3.8,1.7,3.8,3.8
		S98.2,63.3,96.1,63.3z"/>
	<g>
		<circle fill="#95D600" cx="63.4" cy="26.9" r="2.5"/>
		<circle fill="#95D600" cx="87.3" cy="35.7" r="2.5"/>
		<circle fill="#95D600" cx="39.5" cy="35.7" r="2.5"/>
		<circle fill="#95D600" cx="87.3" cy="83.4" r="2.5"/>
		<circle fill="#95D600" cx="39.5" cy="83.4" r="2.5"/>
		<circle fill="#95D600" cx="30.7" cy="59.5" r="2.5"/>
		<circle fill="#95D600" cx="96.1" cy="59.5" r="2.5"/>
		<circle fill="#95D600" cx="63.4" cy="92.2" r="2.5"/>
	</g>
</g>
</svg>
