<?xml version="1.0" encoding="utf-8"?>
<!-- Generator: Adobe Illustrator 18.0.0, SVG Export Plug-In . SVG Version: 6.00 Build 0)  -->
<!DOCTYPE svg PUBLIC "-//W3C//DTD SVG 1.1//EN" "http://www.w3.org/Graphics/SVG/1.1/DTD/svg11.dtd">
<svg version="1.1" id="Logo__x2014__FIXED" xmlns="http://www.w3.org/2000/svg" xmlns:xlink="http://www.w3.org/1999/xlink" x="0px"
	 y="0px" viewBox="0 0 400 400" enable-background="new 0 0 400 400" xml:space="preserve">
<path fill="#1b3040" d="M129.7,354.1c143.1,0,221.3-118.5,221.3-221.3c0-3.4-0.1-6.7-0.2-10.1c15.2-11,28.4-24.7,38.8-40.3
	c-13.9,6.2-28.9,10.4-44.7,12.2c16.1-9.6,28.4-24.9,34.2-43c-15,8.9-31.7,15.4-49.4,18.9c-14.2-15.1-34.4-24.6-56.8-24.6
	c-43,0-77.8,34.8-77.8,77.8c0,6.1,0.7,12,2,17.7c-64.7-3.2-122-34.2-160.3-81.3C30.1,71.7,26.3,85,26.3,99.3
	c0,27,13.7,50.8,34.6,64.8c-12.8-0.4-24.7-3.9-35.2-9.7c0,0.3,0,0.7,0,1c0,37.7,26.8,69.1,62.4,76.3c-6.5,1.8-13.4,2.7-20.5,2.7
	c-5,0-9.9-0.5-14.6-1.4c9.9,30.9,38.6,53.4,72.7,54C99,307.8,65.4,320.2,29,320.2c-6.3,0-12.5-0.4-18.6-1.1
	C44.8,341.2,85.7,354.1,129.7,354.1"/>
</svg>
