<?xml version="1.0" encoding="UTF-8" standalone="no"?>
<!-- Generator: Adobe Illustrator 18.0.0, SVG Export Plug-In . SVG Version: 6.00 Build 0)  -->

<svg
   xmlns:dc="http://purl.org/dc/elements/1.1/"
   xmlns:cc="http://creativecommons.org/ns#"
   xmlns:rdf="http://www.w3.org/1999/02/22-rdf-syntax-ns#"
   xmlns:svg="http://www.w3.org/2000/svg"
   xmlns="http://www.w3.org/2000/svg"
   xmlns:sodipodi="http://sodipodi.sourceforge.net/DTD/sodipodi-0.dtd"
   xmlns:inkscape="http://www.inkscape.org/namespaces/inkscape"
   version="1.1"
   id="Layer_1"
   x="0px"
   y="0px"
   viewBox="0 0 283.5 119.1"
   enable-background="new 0 0 283.5 119.1"
   xml:space="preserve"
   sodipodi:docname="logo_neo.svg"
   inkscape:version="0.92.4 (f8dce91, 2019-08-02)"><metadata
   id="metadata3970"><rdf:RDF><cc:Work
       rdf:about=""><dc:format>image/svg+xml</dc:format><dc:type
         rdf:resource="http://purl.org/dc/dcmitype/StillImage" /></cc:Work></rdf:RDF></metadata><defs
   id="defs3968"><clipPath
     clipPathUnits="userSpaceOnUse"
     id="clipPath3784"><path
       d="M 0,0 H 1366 V 768 H 0 Z"
       id="path3782"
       inkscape:connector-curvature="0" /></clipPath><clipPath
     clipPathUnits="userSpaceOnUse"
     id="clipPath3784-3"><path
       d="M 0,0 H 1366 V 768 H 0 Z"
       id="path3782-6"
       inkscape:connector-curvature="0" /></clipPath></defs><sodipodi:namedview
   pagecolor="#ffffff"
   bordercolor="#666666"
   borderopacity="1"
   objecttolerance="10"
   gridtolerance="10"
   guidetolerance="10"
   inkscape:pageopacity="0"
   inkscape:pageshadow="2"
   inkscape:window-width="1859"
   inkscape:window-height="1025"
   id="namedview3966"
   showgrid="false"
   inkscape:zoom="1.2345679"
   inkscape:cx="141.75"
   inkscape:cy="59.549999"
   inkscape:window-x="61"
   inkscape:window-y="27"
   inkscape:window-maximized="1"
   inkscape:current-layer="g3780" />

<g
   transform="matrix(1.3333333,0,0,-1.3333333,-705.58058,631.01718)"
   id="g3778"><g
     id="g3780"
     clip-path="url(#clipPath3784-3)"><g
       id="g3786"
       transform="translate(645.679,442.5554)"
       style="fill:#1b3040;fill-opacity:1"><path
         d="m 0,0 c 2.833,-2.524 4.252,-6.157 4.253,-10.896 l 0.006,-24.733 -6.183,-0.001 -0.005,22.568 c -10e-4,4.019 -0.865,6.929 -2.591,8.732 -1.728,1.803 -4.033,2.704 -6.918,2.704 -2.062,-0.001 -3.994,-0.452 -5.796,-1.354 -1.804,-0.902 -3.284,-2.371 -4.443,-4.406 -1.159,-2.037 -1.738,-4.599 -1.737,-7.69 l 0.005,-20.559 -6.183,-0.002 -0.01,37.46 5.635,-2.306 0.163,-2.537 c 1.287,2.319 3.064,4.032 5.332,5.141 2.266,1.108 4.816,1.663 7.651,1.663 C -6.443,3.785 -2.835,2.523 0,0"
         style="fill:#1b3040;fill-opacity:1;fill-rule:nonzero;stroke:none"
         id="path3788"
         inkscape:connector-curvature="0" /></g><g
       id="g3790"
       transform="translate(693.9124,423.9409)"
       style="fill:#1b3040;fill-opacity:1"><path
         d="m 0,0 -29.137,-0.007 c 0.361,-3.916 1.664,-6.955 3.905,-9.119 2.242,-2.164 5.14,-3.245 8.696,-3.245 2.833,0.001 5.19,0.492 7.071,1.471 1.88,0.979 3.155,2.397 3.825,4.252 l 5.178,-2.704 c -1.545,-2.732 -3.605,-4.82 -6.181,-6.262 -2.576,-1.442 -5.873,-2.165 -9.892,-2.166 -5.823,-10e-4 -10.395,1.775 -13.72,5.329 -3.324,3.555 -4.987,8.474 -4.988,14.761 -0.002,6.286 1.582,11.207 4.749,14.763 3.168,3.556 7.662,5.335 13.485,5.336 3.606,0.001 6.724,-0.797 9.353,-2.394 2.628,-1.597 4.611,-3.76 5.952,-6.49 C -0.364,10.794 0.307,7.729 0.308,4.329 0.309,2.885 0.205,1.442 0,0 m -25.237,13.982 c -2.086,-2.009 -3.361,-4.844 -3.824,-8.502 l 23.418,0.006 c -0.414,3.606 -1.6,6.426 -3.557,8.462 -1.96,2.034 -4.561,3.052 -7.808,3.051 -3.4,-10e-4 -6.143,-1.006 -8.229,-3.017"
         style="fill:#1b3040;fill-opacity:1;fill-rule:nonzero;stroke:none"
         id="path3792"
         inkscape:connector-curvature="0" /></g><g
       id="g3794"
       transform="translate(735.1211,441.0317)"
       style="fill:#1b3040;fill-opacity:1"><path
         d="M 0,0 C 3.324,-3.555 4.987,-8.475 4.988,-14.761 4.99,-21.047 3.33,-25.968 0.007,-29.524 c -3.322,-3.556 -7.895,-5.335 -13.717,-5.336 -5.823,-0.002 -10.395,1.775 -13.719,5.329 -3.325,3.555 -4.988,8.474 -4.989,14.761 -0.002,6.286 1.659,11.207 4.981,14.763 3.323,3.556 7.895,5.335 13.717,5.336 C -7.898,5.331 -3.324,3.554 0,0 m -22.915,-3.948 c -2.215,-2.628 -3.322,-6.236 -3.32,-10.821 10e-4,-4.586 1.109,-8.191 3.326,-10.819 2.215,-2.627 5.282,-3.941 9.198,-3.94 3.915,10e-4 6.981,1.317 9.196,3.945 2.214,2.628 3.322,6.234 3.321,10.82 -0.001,4.586 -1.111,8.193 -3.326,10.82 -2.217,2.627 -5.283,3.941 -9.199,3.94 -3.916,-0.001 -6.981,-1.316 -9.196,-3.945"
         style="fill:#1b3040;fill-opacity:1;fill-rule:nonzero;stroke:none"
         id="path3796"
         inkscape:connector-curvature="0" /></g></g></g><g
   id="g3798"
   transform="matrix(1.3333333,0,0,-1.3333333,3.88847,26.025999)"><path
     d="M 0,0 0.015,-53.708 34.888,-66.216 34.875,-12.062 72.573,1.839 38.354,14.085 Z"
     style="fill:#1b3040;fill-opacity:1;fill-rule:nonzero;stroke:none"
     id="path3800"
     inkscape:connector-curvature="0" /></g><g
   id="g3802"
   transform="matrix(1.3333333,0,0,-1.3333333,54.1818,44.74119)"><path
     d="M 0,0 -0.002,-28.951 34.881,-41.434 34.862,12.899 Z"
     style="fill:#1b3040;fill-opacity:1;fill-rule:nonzero;stroke:none"
     id="path3804"
     inkscape:connector-curvature="0" /></g></svg>